<svg xmlns="http://www.w3.org/2000/svg" viewBox="0 0 512 512">
  <defs>
    <linearGradient id="grad" x1="0%" y1="0%" x2="100%" y2="100%">
      <stop offset="0%" style="stop-color:#10b981;stop-opacity:1" />
      <stop offset="100%" style="stop-color:#059669;stop-opacity:1" />
    </linearGradient>
  </defs>
  <rect width="512" height="512" rx="96" fill="#0a0a0a"/>
  <g fill="url(#grad)">
    <!-- Dollar sign -->
    <path d="M256 80c-8.8 0-16 7.2-16 16v24c-35.3 4.4-64 30.6-64 68 0 39.8 32.2 72 72 72h16c22.1 0 40 17.9 40 40s-17.9 40-40 40h-32c-17.7 0-32-14.3-32-32 0-8.8-7.2-16-16-16s-16 7.2-16 16c0 35.3 28.7 64 64 64v24c0 8.8 7.2 16 16 16s16-7.2 16-16v-24c35.3-4.4 64-30.6 64-68 0-39.8-32.2-72-72-72h-16c-22.1 0-40-17.9-40-40s17.9-40 40-40h32c17.7 0 32 14.3 32 32 0 8.8 7.2 16 16 16s16-7.2 16-16c0-35.3-28.7-64-64-64V96c0-8.8-7.2-16-16-16z"/>
    <!-- Chart bars -->
    <rect x="96" y="320" width="48" height="112" rx="8"/>
    <rect x="168" y="280" width="48" height="152" rx="8"/>
    <rect x="296" y="240" width="48" height="192" rx="8"/>
    <rect x="368" y="200" width="48" height="232" rx="8"/>
  </g>
</svg>
